<mxfile host="65bd71144e">
    <diagram id="AW0ZBw4HESN37g6QSujI" name="Page-1">
        <mxGraphModel dx="532" dy="467" grid="1" gridSize="10" guides="1" tooltips="0" connect="1" arrows="1" fold="0" page="1" pageScale="1" pageWidth="850" pageHeight="1100" math="0" shadow="0">
            <root>
                <mxCell id="0"/>
                <mxCell id="1" parent="0"/>
            </root>
        </mxGraphModel>
    </diagram>
</mxfile>